<svg version="1.2" xmlns="http://www.w3.org/2000/svg" viewBox="0 0 147 63" width="147" height="63">
	<title>riuci-logo-svg</title>
	<style>
		.s0 { fill: #d95053 } 
		.s1 { fill: #dbb461 } 
		.s2 { fill: #72a658 } 
		.s3 { fill: #c24443 } 
		.s4 { fill: #ec6442 } 
		.s5 { fill: #6ec6e3 } 
		.s6 { fill: #f5cb54 } 
		.s7 { fill: #a53c55 } 
		.s8 { fill: #ef844c } 
		.s9 { fill: #ec4482 } 
		.s10 { fill: #f0ad55 } 
		.s11 { fill: #c29951 } 
		.s12 { fill: #618c5e } 
		.s13 { fill: #56a6d8 } 
		.s14 { fill: #83c356 } 
		.s15 { fill: #377ba8 } 
		.s16 { fill: #325b7a } 
		.s17 { fill: #46853f } 
		.s18 { fill: #aac744 } 
		.s19 { fill: #8ebf4b } 
		.s20 { fill: #1f4b24 } 
	</style>
	<g id="Layer">
		<path id="Layer" class="s0" d="m125.5 0.3l1.9 0.7-1.9 5-1.9-0.7z"/>
		<path id="Layer" class="s1" d="m130.9 2.7l1.8 1.1-2.8 4.5-1.8-1.1z"/>
		<path id="Layer" class="s2" d="m135.7 6.1l1.5 1.4-3.5 3.9-1.5-1.4z"/>
		<path id="Layer" class="s3" d="m139.8 10.3l1.2 1.6-4.2 3.2-1.2-1.6z"/>
		<path id="Layer" class="s4" d="m143.1 15.2l0.9 1.8-4.7 2.4-0.9-1.8z"/>
		<path id="Layer" class="s5" d="m145.4 20.6l0.6 2-5.1 1.4-0.6-2z"/>
		<path id="Layer" class="s6" d="m146.7 26.3l0.2 2.1-5.3 0.5-0.2-2.1z"/>
		<path id="Layer" class="s7" d="m146.8 32.2l-0.2 2.1-5.3-0.5 0.2-2.1z"/>
		<path id="Layer" class="s8" d="m145.9 38l-0.6 2-5.1-1.5 0.6-2z"/>
		<path id="Layer" class="s9" d="m143.9 43.5l-0.9 1.8-4.7-2.4 0.9-1.8z"/>
		<path id="Layer" class="s10" d="m140.9 48.6l-1.3 1.6-4.2-3.2 1.3-1.6z"/>
		<path id="Layer" class="s11" d="m137.1 53l-1.5 1.4-3.5-4 1.5-1.4z"/>
		<path id="Layer" class="s12" d="m132.5 56.6l-1.8 1.1-2.7-4.5 1.8-1.1z"/>
		<path id="Layer" class="s13" d="m127.2 59.4l-1.9 0.7-1.8-5 1.9-0.7z"/>
		<path id="Layer" class="s14" d="m121.6 61l-2 0.3-0.9-5.2 2-0.3z"/>
		<path id="Layer" class="s15" d="m115.8 61.7h-2.1l0.1-5.3h2.1z"/>
		<path id="Layer" class="s16" d="m110.7 60.9l-2-0.4 1.1-5.2 2 0.4z"/>
	</g>
	<path id="Layer" class="s17" d="m27.7 27.7c-1.8-1.6-2.2-4-0.9-5.4l8-8.1c1.3-1.4 3.9-1.3 5.7 0.3 1.8 1.6 2.2 4 0.9 5.4l-8 8.1c-1.3 1.4-3.9 1.2-5.7-0.3z"/>
	<path id="Layer" class="s17" d="m1.8 52.3c-1.8-1.6-2.2-4-0.9-5.4l18.4-17.3c1.3-1.4 3.9-1.3 5.7 0.3 1.8 1.6 2.2 4 0.9 5.4l-18.4 17.3c-1.3 1.4-3.9 1.3-5.7-0.3z"/>
	<path id="Layer" class="s18" d="m10.6 61.1c-1.8-1.6-2.2-4-0.9-5.4l18.3-17.3c1.3-1.4 3.9-1.3 5.7 0.3 1.8 1.6 2.2 4 0.9 5.4l-18.3 17.2c-1.4 1.5-3.9 1.3-5.7-0.2z"/>
	<path id="Layer" class="s19" d="m11.9 7.2c1.6-1.8 4-2.3 5.4-1.2l17.1 15.8c1.4 1.1 1.3 3.5-0.3 5.3-1.6 1.8-4 2.3-5.4 1.2l-17.2-15.8c-1.4-1.1-1.2-3.5 0.4-5.3z"/>
	<path id="Layer" class="s18" d="m1.2 14.3c1.6-1.8 4.1-2.2 5.6-1l18.6 17c1.5 1.2 1.5 3.7-0.1 5.5-1.6 1.8-4.1 2.2-5.6 1l-18.6-17c-1.5-1.3-1.5-3.7 0.1-5.5z"/>
	<path id="Layer" class="s17" d="m27.2 39.1c1.6-1.8 4.1-2.2 5.6-1l9.1 8.4c1.5 1.2 1.5 3.7-0.1 5.5-1.6 1.8-4.1 2.2-5.6 1l-9.1-8.4c-1.6-1.2-1.5-3.7 0.1-5.5z"/>
	<g id="Layer">
		<path id="Layer" class="s19" d="m28.4 0c-2.2 0-6 2.2-6.8 5.2-0.3 1.1-0.2 2.3 0.2 3.4 0.2 0.6 0.6 0.8 1.2 0.4 1.6-0.9 2.9-2.1 3.5-3.8 0.1-0.6 0.3-1.2 0.5-1.8 0.2-1.1 0.4-2.3 1.4-3.4z"/>
		<path id="Layer" class="s19" d="m29.9 8.4c-1.9-1.7-5.4-1.1-6.3 1.1-0.3 0.6-0.1 0.7 0.5 0.8 1.4 0.2 2.6-0.1 3.7-0.8 0.7-0.4 1.3-0.9 2.1-1.1z"/>
	</g>
	<g id="Layer">
		<path id="Layer" fill-rule="evenodd" class="s20" d="m60.2 33.9l-3.8-6h-4.1v6h-4.5v-21.7h8.5c5.2 0 8.5 3 8.5 7.9 0 3.2-1.5 5.6-4 6.8l4.4 7zm-4.3-17.6h-3.7v7.6h3.7c2.8 0 4.2-1.4 4.2-3.8 0-2.4-1.4-3.8-4.2-3.8z"/>
		<path id="Layer" class="s20" d="m67.7 12.2h4.5v21.7h-4.5z"/>
		<path id="Layer" class="s20" d="m76.2 24.4v-12.2h4.5v11.9c0 4.1 1.6 5.8 4.4 5.8 2.8 0 4.4-1.7 4.4-5.8v-11.9h4.5v12.1c0 6.4-3.3 9.9-8.9 9.9-5.6 0.1-8.9-3.5-8.9-9.8z"/>
		<path id="Layer" class="s20" d="m96.6 23.1c0-6.5 4.5-11.2 10.6-11.2 3.4 0 6.2 1.4 8.1 3.8l-2.9 3c-1.3-1.7-3-2.5-4.9-2.5-3.7 0-6.3 2.8-6.3 6.9 0 4.1 2.6 6.9 6.3 6.9 2 0 3.6-0.9 4.9-2.6l2.9 3c-1.8 2.5-4.7 3.9-8.1 3.9-6 0-10.6-4.7-10.6-11.2z"/>
		<path id="Layer" class="s20" d="m117.8 12.2h4.5v21.7h-4.5z"/>
	</g>
	<path id="Layer" fill-rule="evenodd" class="s18" d="m57.3 46.5c0 3.3-2.1 5.7-4.9 5.7-1.5 0-2.7-0.7-3.2-1.9l-0.4 1.7h-1.5l2.4-13.5h1.6l-0.9 5q1.2-1.2 3-1.2c2.2 0 3.9 1.6 3.9 4.2zm-1.6 0.1c0-1.7-0.9-2.7-2.6-2.7-2 0-3.4 1.7-3.4 4.1 0 1.7 0.9 2.7 2.6 2.7 1.9-0.1 3.4-1.8 3.4-4.1zm11.8-4.2l-1.7 9.6h-1.5l0.2-1.2c-0.8 0.8-1.8 1.3-3.1 1.3-2.2 0-3.9-1.6-3.9-4.2 0-3.3 2.1-5.7 4.9-5.7 1.5 0 2.6 0.6 3.1 1.7l0.3-1.6h1.7zm-2.4 4.2c0-1.7-0.9-2.7-2.6-2.7-2 0-3.4 1.7-3.4 4.1 0 1.7 0.9 2.7 2.6 2.7 2-0.1 3.4-1.8 3.4-4.1zm18.3-1.1c0 0.3 0 0.7-0.1 1.1l-1 5.4h-1.6l1-5.4c0-0.3 0.1-0.6 0.1-0.8 0-1.2-0.6-1.9-1.9-1.9-1.6 0-2.7 1-3.1 3l-1 5.1h-1.6l1-5.4c0-0.3 0.1-0.6 0.1-0.8 0-1.2-0.6-1.9-1.9-1.9-1.6 0-2.7 1-3.1 3.1l-0.9 5h-1.6l1.7-9.6h1.5l-0.2 1.2c0.8-0.9 1.8-1.3 3-1.3 1.4 0 2.4 0.6 2.8 1.7 0.9-1.1 2.1-1.7 3.6-1.7 2 0 3.2 1.2 3.2 3.2zm10.8 1c0 3.3-2.1 5.7-4.9 5.7-1.5 0-2.7-0.7-3.2-1.9l-0.4 1.7h-1.5l2.4-13.5h1.6l-0.9 5q1.2-1.2 3-1.2c2.3 0 3.9 1.6 3.9 4.2zm-1.6 0.1c0-1.7-0.9-2.7-2.6-2.7-2 0-3.4 1.7-3.4 4.1 0 1.7 0.9 2.7 2.6 2.7 1.9-0.1 3.4-1.8 3.4-4.1zm1.8 1.4c0-3.3 2.1-5.7 5.1-5.7 2.5 0 4.1 1.6 4.1 4.2 0 3.3-2.1 5.7-5.1 5.7-2.4 0-4.1-1.7-4.1-4.2zm7.7-1.4c0-1.7-0.9-2.7-2.6-2.7-2 0-3.4 1.7-3.4 4.1 0 1.7 0.9 2.7 2.6 2.7 1.9-0.1 3.4-1.8 3.4-4.1zm1.8 1.4c0-3.3 2.1-5.7 5.1-5.7 2.5 0 4.1 1.6 4.1 4.2 0 3.3-2.1 5.7-5.1 5.7-2.5 0-4.1-1.7-4.1-4.2zm7.6-1.4c0-1.7-0.9-2.7-2.6-2.7-2 0-3.4 1.7-3.4 4.1 0 1.7 0.9 2.7 2.6 2.7 2-0.1 3.4-1.8 3.4-4.1z"/>
</svg>